<svg xmlns="http://www.w3.org/2000/svg" viewBox="0 0 1744 1744" fill="none" shape-rendering="auto"><metadata xmlns:rdf="http://www.w3.org/1999/02/22-rdf-syntax-ns#" xmlns:xsi="http://www.w3.org/2001/XMLSchema-instance" xmlns:dc="http://purl.org/dc/elements/1.1/" xmlns:dcterms="http://purl.org/dc/terms/"><rdf:RDF><rdf:Description><dc:title>Notionists</dc:title><dc:creator>Zoish</dc:creator><dc:source xsi:type="dcterms:URI">https://heyzoish.gumroad.com/l/notionists</dc:source><dcterms:license xsi:type="dcterms:URI">https://creativecommons.org/publicdomain/zero/1.0/</dcterms:license><dc:rights>Remix of „Notionists” (https://heyzoish.gumroad.com/l/notionists) by „Zoish”, licensed under „CC0 1.0” (https://creativecommons.org/publicdomain/zero/1.0/)</dc:rights></rdf:Description></rdf:RDF></metadata><mask id="viewboxMask"><rect width="1744" height="1744" rx="0" ry="0" x="0" y="0" fill="#fff" /></mask><g mask="url(#viewboxMask)"><g transform="translate(531 487)"><path d="M554 727.7c-99.2 297-363.8 388.6-503.7 19.8-19.3-50.7 31-69.5 66.2-91.9 24.1-15.3 36.8-28.5 35.3-42.2-7-64.4-36.9-243.8-36.9-243.8l-3-5.8s.7-1.6-2.2 1.2c-3 3-9.9 34.2-37 34.2-24.5 0-49.2-10.9-61-86.3C7.2 285.6 9.6 214 40 201c12.5-5.3 24-7.2 35.2-.8 11.3 6.4-13-22 112-126C268.4 6.4 396.7-3.5 448.5 8 500.3 19.5 552 44.8 574.9 98.5c27.8 65-25.9 114.3-14 262.5-2.2 53.6.8 171.2-146.6 210.6-28 7.5-19.3 48.4 22.7 58.4 67 21 117 72.3 117 97.9" fill="#fff"/><path fill-rule="evenodd" clip-rule="evenodd" d="m554 266.2.1-1.4c4.1-36.4 8.2-71.7 27.1-103.4 6.5 4.4 5.7 10 3.7 15.2-19.9 51.2-18 104.4-16.2 157.6l.4 14c2.1 66.4-14.5 126.8-58.7 177.5-15.4 17.6-35.8 29.8-56.5 40.3-21.4 11-25.9 20.1-19.2 43.6l.8 2.6c1.4 3.9 2.8 7.9-1 11.8-4.5 4.6-9.5 3.3-14.8 1.8l-.6-.1a406.4 406.4 0 0 1-137-68.3c-6-4.4-10.8-10.3-15.5-16.1l-.3-.4c-2.5-3-3-7.8.5-10.4 3.3-2.5 5.8-.5 8.7 1.8l1 .9a145.5 145.5 0 0 0 76.3 31.7c13.4 1.4 26.6.9 40 .4 7.4-.3 14.8-.6 22.3-.5 10.2 0 18.7-4.7 26.7-9.2l2.8-1.6c27.8-15.5 54.3-32.8 72.2-60.7 16.1-25 25.9-52.2 31.6-80.9 7.2-36.1 6.6-72.7 6-109.8-.3-12-.5-24.2-.5-36.4ZM50.6 190.8c21.9-1.7 34 11.2 44.3 26.3a140.4 140.4 0 0 1 22.4 61.5c.5 3.7 1 7.6-1.2 11.3-4.5.6-4.9-3-5-5.6-.5-20.7-9.7-38.7-18.9-56.1-6.6-12.5-16.2-24.6-31.4-27.6-17.2-3.5-33 12-40.8 32.2-14.5 37.6-12 74.6 1.4 111 5.8 15.9 13.1 32.1 27.8 43.2 14.8 11.3 32.7 9.3 43.6-5.7l2-2.5c2-2.6 4-5.1 5-8 2.1-5.8 5.4-11.2 11.3-10.4 6.8 1 8 8.3 8.7 14a3661 3661 0 0 0 22 156.7l5.9 38.8c2.6 17.1 5.6 41.7 3.6 52.1a28 28 0 0 0-.3 2.2c-.4 2.8-.6 5-4.2 5.5-4.9.8-7-2-7.7-6.4-2.3-17-3-23.6-4-49.6-.9-25.2-5.6-50-10.4-74.9l-5-27c-5.2-30.8-10.3-62-10.8-97l-2 3c-7.6 11.3-13.7 20.5-24.5 24a40.5 40.5 0 0 1-46.1-12.5 127.8 127.8 0 0 1-28.8-55.8c-8.4-34-9.9-67.1.9-100.6 5.2-16.1 23.7-44.7 42.2-42Zm34.6 127.5c4.4 3.2 8.4 6 12-5.4-1.1-42.2-14.7-69.2-35.8-70.3 11.2 14.6 22 28.8 23 48.5a32.3 32.3 0 0 1-10.7-8.8c-2-2.2-4-4.4-6.5-6l-3-2.4c-4.8-3.6-9.7-7.4-17.8-4.5 3.8 5.8 9 10 14.3 14 6 4.7 12 9.3 15.6 16.5-10.6 7.7-15.2 17.7-9.7 29.9 4.8 10.5 11.9 19.2 25.9 19.8-.6-6.3-4.7-10.9-8.8-15.4-5-5.4-9.7-10.6-7.5-18.6 3.2-1.5 6.2.7 9 2.7Z" fill="#000"/></g><g transform="translate(178 1057)"><path d="M1291.6 689H83.2l8.6-63.3S14.2 599.3 6.5 584c-7.8-15.3 84.1-214.2 96.7-245.6 12.7-31.5 77-142.8 115.1-164C260.7 150.6 400 87.5 408 81.1c26.1-21 82.7-42.8 82.7-42.8V69l171.4 281 10.3 37.8S776 107 785.7 50C793.9 2 905.5 60.2 905.5 60.2s114.1 70.6 143 93.3c58.4 46.2 140 138.6 180.7 239.2 23.2 57 72.5 168.2 80.6 181.3 8.1 13-27 36-27 36l8.8 79.1Z" fill="#fff"/><path fill-rule="evenodd" clip-rule="evenodd" d="M1044.5 160c-24.1-19.9-48.3-39.8-75-55.2-4-2.2-7.8-4.6-11.7-7-13.2-7.8-26.4-15.8-41.4-20.6-1.8 10.2-1.4 20-.5 29.6A699 699 0 0 1 916 248c-1.4 11.5-1.1 23.3-.8 35l.2 12.3c0 6.8-1 13.6-2.7 20-2.4 9.2-6.7 13.3-16 14-8.3.6-16.6 1.9-24.8 3.2a187.8 187.8 0 0 1-40.3 3.4c-2.8-.2-5.6-.1-7.3 0H823l3.5 4.4c3.2 4 7 8.7 10.4 13.6 5.5 7.7 6.7 14.4 1.5 24.9-26 52.4-61 97.3-98.6 138.3-12 13.1-23.4 27.2-34.7 41.2-18.7 23.3-37.4 46.6-59.8 65.8-11.3 9.7-21.5 20.8-31.8 32a403.9 403.9 0 0 1-31.7 32.1c-13.3.7-26.2.7-40.2.7 6.4-12.8 11.6-26.5 16.8-40.2a497 497 0 0 1 15-36.4 858.8 858.8 0 0 0 26.7-64.4c6-16 6.3-32.2-4.2-46.8l-11.4-16c-20.4-28.5-40.9-57-64.2-82.7-10.6-11.6-13-30-6.3-47 1.7-4.2 3.2-8.5 4.8-12.9l2.1-5.8c-14-6-28-6.3-42.1-6.7-6.7 0-13.3-.2-19.8-1l-1.4-.2c-21.6-2.4-22-2.5-29.6-26.2a699.8 699.8 0 0 1-31.6-157 134.6 134.6 0 0 0-9.9-43.4c-22.8 9.3-44.6 19.8-66.3 30.3l-1 .4c-24.7 12-49.2 24.9-73.5 38.1-36 19.8-64.1 49.8-87 86.6l-.5.8c-16.7 26.8-33.3 53.6-46.4 83L88 394.4l-13.3 29.3-10.5 23.1c-9.2 20.2-18.4 40.3-27 60.7a795.9 795.9 0 0 0-20.4 52.4c-4 11.7-.1 17 8.3 20l15 6a206 206 0 0 0 43.3 13.8c20 3.2 38 11.5 56 19.8l1.3.6 1.4.6c30.3 14 60 29.3 89.8 44.7a360.8 360.8 0 0 1 36.6 22.7c-9.6.8-19.2 1-28.8.3a620 620 0 0 0-80.9-37.3c-19.4-7.8-38.8-15.6-58-25a565 565 0 0 1-4.6 21.6C93 662 90 675.2 89.6 689H77c-2.2-7.2-.6-14 .9-20.8l1.2-5.5c2-11.3 1.2-19.7-11.4-22.1-18.5-3.7-34-14.8-49.6-25.9a1279 1279 0 0 0-5-3.5c-12-8.5-15.8-26.2-11.2-47 5.2-23.5 14.4-45 23.7-66.5l1.3-3c16.3-38 33.2-75.5 50.2-113l13.4-29.8c25.7-57.1 55.5-112 97.5-156.4 21-22.2 45-38.9 71.7-51.8 7.8-3.7 15.6-7.6 23.4-11.5 20-10 40-20 60.5-28.2 19.3-7.6 28-17 36.4-26.3 9-9.7 17.8-19.3 38.6-26.2l13.9-4.8c16.8-6 33.6-11.8 51.4-13.5h1c1.3-.1 2.6-.2 3.4-1l.3-.3c4-4 8.3-8 13-1.6a17.5 17.5 0 0 1 1 19.2c-7 10.8-3.2 21 .3 30.4l.3.9c8.4 22 60.2 109.5 78.7 134.6l6 7.9c21 28 72.4 96.4 87.9 143.7 6.2-12.1 10.6-25 14.9-37.7l5.2-15a2199 2199 0 0 0 29.2-86.7c3.7-11.5 7-23 10.2-34.7 2.7-9.4 5.3-18.8 8.2-28 4.3-14.2 8.8-28.2 13.3-42.2l9-28.2 5.9-19.2 6.5-21.5c8.3-25.8 10.4-30.5 34-29.7 29.2 1 63.6 11.3 83.6 19.7 96 40.4 248.5 140.6 319.7 290.2a2276 2276 0 0 1 59.5 140.3c17.5 44 31.2 78.6 42.6 95 9.6 14 8.5 22-4 32.1a92.1 92.1 0 0 0-4.7 4.1c-4 3.7-8 7.4-13.2 9-5.6 1.7-7.3 6.5-6.5 13a2842 2842 0 0 1 6.5 60.4c-4.1 1-8 1-13.3.1-4-9.2-3.8-18-3.6-26.5v-1c.5-15.5-3.5-29.7-7.7-44.6l-3-10.9c-3.3 1.4-6.6 2.7-10 3.9-7 2.6-13.7 5.1-20 8.8a252.2 252.2 0 0 1-76 30.5c-20.9 4.4-30.5 17.1-27.6 40.8-5 .1-10.1-.3-15.1-1.2-2-41.7 23.2-51.6 55.8-64.4l11.7-4.7c47.4-19.5 108-47.2 108-47.2s-61.1-143.9-82.6-198.2c-42-106.6-147.6-196.7-151.1-199.5l-16.7-13.7ZM729.3 261.3a2651.4 2651.4 0 0 1-51.6 140.5c-14 35.6-29.2 70.6-44.4 105.5l-1.5 3.6c-5.5 12.4-10.6 25-15.7 37.5-7.5 18.2-15 36.5-23.2 54.3-6.7 14.4-12.5 29.3-18.3 44.3l-8 20.4-.5 1.2c-1.2 2.7-2.4 5.4.4 8 2.1 2 4.4.5 6.2-1 2.4-2 4.8-4.1 7-6.4l13-13.5 18.4-19 19.5-19.6c10.6-10.6 21.2-21.1 31.6-32 7.5-7.8 14-16.7 20.5-25.6 7-9.5 14-19 22-27a560 560 0 0 0 58.8-68c6.2-8.5 12.7-16.8 19.2-25.1 14.3-18.5 28.6-37 40.1-58.1 5.2-9.5 6.4-16.1-2.4-23.8-6.7-6-12.3-13.6-17.8-21l-.7-1-.4-.5c-3-4.2-6.6-9-3.2-15.7 7.4-1 14.9-1.3 22.4-1.2 21 0 42-.8 63-1.6l3.7-.1c7.2-.3 11.9-4.4 12.2-13.4a1433.4 1433.4 0 0 1 1.8-34.5l1.5-25c1.8-28.5 3.6-57 2.5-85.5-1-24.3-1.4-48.7-.1-73 .7-12-3.3-17.6-11.7-22.9-23.6-14.8-49.5-18.3-75.4-21.9l-11.6-1.6c-6.6-1-8.8 3.4-10.5 8.8-1.6 5.2-3.5 10.4-5.3 15.6-2.8 7.7-5.6 15.5-7.6 23.6-3.3 13.4-8 26.2-12.7 39-2.8 7.6-5.6 15.3-8.1 23-4.6 14.4-8.7 29-12.8 43.8-5.9 21-11.8 42.5-19.6 63.9a28 28 0 0 1-.7 5Zm-240.7-172 .5 1.2C505.6 127.3 585.3 247.1 617 291l4.5 6.2c16.5 22.3 46.3 62.7 38 95.6a486 486 0 0 1-34 96c-.9 1.9-1.5 4-2.2 6.1a23.7 23.7 0 0 1-6.3 11.8c-13-22-28.3-42-43.6-61.9-6.9-9-13.8-18-20.5-27.2-4.8-6.6-10.2-12.6-15.5-18.7-4.5-5-9-10-13.1-15.4-5.1-6.6-4.6-10.9-1.4-16.3 3.5-5.9 5.7-12.4 8-18.9l1.8-5.4c4.7-13 1.5-19.8-10.8-23.7-8.5-2.6-17.2-2.7-25.9-2.7-5.6 0-11.2 0-16.7-.8-.6 0-1.3 0-2 .2l-1.4.2c-27.8.5-30.2-2-39.1-30.8A625.2 625.2 0 0 1 412 162.6c-1-8.8-2.6-17.4-4.2-26-1.5-7.6-3-15.1-3.9-22.8-2-15.8.5-21.5 13.3-27 14.6-6.3 19.1-12.7 23.2-18.5 4.6-6.5 8.7-12.3 25.8-16.6h.2c13.3-3.4 14.2-3.7 14.8 12.4.3 9.3 4 17.5 7.4 25.1Z" fill="#000"/></g><g transform="translate(266 207)"><path d="M285.9 361.5a626.9 626.9 0 0 1 50.8-83c14.5-19.4 28.8-39 47.6-54.5 24-19.9 50-35.2 80.2-44.6 25.8-8 51.2-6.9 77-5 7.7.6 11.5-2 11.8-9.5.3-7.6-.3-15.4.3-23 1.6-22.8 20-31.6 39-19.2a124.8 124.8 0 0 1 36.9 36.2c1.8 2.9 4 5.6 8.7 6.2 5.4-5.7 8.5-14 15.7-18.7 6-3.9 12.2-9.2 19.9-5 6.9 3.7 10 10.2 9.4 18.2v5.1c.1 13.4 0 23.1 18.4 29 26.3 8.4 49.2 26 70.6 44.5 40 34.8 62.7 80 73.3 130a488 488 0 0 1 12 107.6c-1 68 4.6 136 16.7 203 6.4 34.9 15 68.8 27.3 101.7 3.9 10.3 8.6 20.3 14.1 29.8 13 22.2 2.6 32.2-17.2 38.8-5 1.8-10.8 1.6-17.4 2.5 5.1 11.6-.8 15.3-11.5 17.2-43 7.7-30 7.8-71.5-4 6 11.6 0 15.8-10.1 17.3-26.6 4-52.5 4.8-75.3-13.2-6-4.7-9.4-10.8-12.8-17.2-4.3-8.2-2.4-14 6.2-18.6 34.4-18.4 57-48 74.3-81.7 15-28.8 25.6-59 30.1-91.4 1.7-11.7-.3-22.8-.4-34.2-.5-40-3-80.1 1.2-120 2-19.4 6.8-38.5 6-58.3-.6-18-6.5-27.4-23.5-31.4-27.7-6.6-54.7-14.5-79.1-29.8-6.6-4.1-15.6-3.2-22.6-.5-35.4 13.7-67.6 1-99.4-12.3-16.1-6.7-20.1-7.4-28.5 6.8-19.1 32.8-50.5 51.8-79.6 73.7-24.4 18.4-54.2 27.5-77.8 47.8-21.7 18.7-29.8 40.5-24.7 67.7a107.8 107.8 0 0 0 25.7 50.5c14.8 17.2 32.3 32.3 42 53.8 16 35 24.5 71 12.6 108.3-8 25.1-22.3 47.6-41 66.7-8.8 9-21.3 8-32.6 9.1-18.1 1.8-36.5 2.1-54.8 2.9-4.2.1-9.6.2-11.1-4.4-1.5-4.5.7-9 4.4-12.6 17.3-16.4 20.7-38.3 23.5-60.5a558.3 558.3 0 0 1-33.5 43.2c-10.7 12.5-21.4 25-36.5 32.8-28.1 14.4-56.6 12.3-85.3 2.5A108 108 0 0 1 169 849c-13-9-13.9-12.3-4.8-26-17.1-2-34-4.2-47.8-15.2-7.9-6.3-7-11.4 2.6-14.2 34.2-10.1 56.9-33.7 76.2-62.2 23-34 28-72.2 27.7-111.7 0-25.7 4.6-50.6 8.6-75.8 4.2-26.4 8.3-52.8 15-78.7 7.1-28.3 15.4-56.2 29.9-81.8 3.7-6.7 6-14 9.4-22Z" fill="#000"/></g><g transform="translate(791 871)"><path d="M130.4 84.6a46.5 46.5 0 0 1 28.5-7.8c6.2.5 10.7 3.5 11 9.9.3 7.4-5.7 7-10.8 7.1h-24c-5.5-.3-7.8-3-4.7-9.2Z" fill="#000"/></g><g transform="translate(653 805)"></g><g transform="translate(901 668)"><path d="M59.8 81.5c4.5-7.8 8-15.1 12.7-21.7 3-4.2 8-7.4 13-3.1 4.9 4 0 7.2-2 10.7a227.9 227.9 0 0 0-31.3 82.3c13-2 25-1.4 30.4 11 5.6 12.7-2.5 23.2-10.6 31.8-7.3 7.7-16.6 13.5-29 7.7C42.8 184 69.6 185 65.6 167c-2.6-2.6-4.5-1.7-6.6-1.2-19.7 4.3-22.8 2.4-20.3-18.2a214.6 214.6 0 0 1 21.1-66Z" fill="#000"/></g><g transform="translate(610 680)"><path d="M409.2 75.7c13.1.3 25.4 1 37.7 2.5 3 .3 4.9 3.3 5 6.6 0 3.4-1.8 5.7-4.8 7-11.1 4.9-22 8.3-33.7.2-6.5-4.4-8.9-8.6-4.2-16.3ZM254.7 78.4c6.2 3.3 5.2 7 2.1 10.8-6.5 8-28.2 10-36.4 3.5-4.7-3.8-7.3-8.6-4.4-14.4 3-6 8.2-5 13-2.5 8 4 16.4 3 25.7 2.6Z" fill="#000"/></g><g transform="translate(610 680)"><path d="M266 18.1A80.2 80.2 0 0 1 301 62.8c15.8-3 30.7-5.8 46.4 2.2a97.5 97.5 0 0 1 19.8-34.7C382.8 14 418 2 443.5 10.5c26.2 8.8 44.9 26.2 52.7 51.2a75.5 75.5 0 0 1-11.3 67.8c-35.8 51-110.3 37.5-132.4-14-3.6-8.2-5.7-16.9-6.3-25.8-.6-10.5-5.3-15.8-15-17.3-11.9-1.8-21.2 1.8-25.4 13.9-3.3 9.1-3.2 19-7.4 28.2-13.3 29-37.9 47.4-71.8 47.1-28.5-.2-61.4-18-69-48.8-8.4-34-35.5-41.3-62.4-50.6-22.8-7.9-45.5-16-68.2-24-4.7-1.7-7.3-5.4-5.5-10 2.2-5.7 6.8-3.4 10.8-2C66.4 38.8 100.7 51 134.7 63.8c11.8 4.4 18.5-3.2 22.6-10.7 23.3-42.4 58.4-55.5 103-37.2 1.7.6 3.3 1.2 5.7 2.3Z" fill="#000"/></g><g transform="translate(774 657)"><path d="M56.8 30.9c9.5-10.6 21.8-16.2 31.6-25C93 1.8 98 3 101.8 7.5c3.8 4.3 7.3 8.3 2.7 14.5a83 83 0 0 1-42.7 28.3C47.4 55 32 56.5 17 59.3c-4.5.9-10.2 3.3-11.5-3.6-1.2-6.6 3.2-10 9.5-11.2 14.2-2.8 28.4-5.2 41.8-13.6ZM289.9 29c11.3 2 18 11 27.8 14.2 3.8 1.2 8.4 4.7 6.6 9.5-2.1 5.8-8 4.3-12.2 3a450.2 450.2 0 0 1-39.2-14.5c-12.8-5.6-25.1-12.4-37.4-19-6-3.2-11.6-7.8-7.4-15.2 4.2-7.3 11-9.5 18.3-3.7C259.4 13.8 275 19.8 290 29Z" fill="#000"/></g><g transform="translate(0 559)"><path d="M1344.8 1191.5c0-22.8-13.6-101.4-6.4-126.7 7.3-25.5 39.4-68.3 35.4-142-2.6-48.4-15.4-82.8-48.3-106-19.6-14-50-36-72.2-26.1l-68.9 30.3-26.6 24.5s46.2 9.8 66 0c33.1-16.4 74.2 7.5 74.2 7.5s-102.8.8-127.4 29.8c-12.3 14.6-16 39-10.8 49.5 5.2 10.4 10.3 31.4 15.9 37 17.1 17.2 41 6.2 26.6 29.3-9.4 15 37.5 17.1 14 45.4-13.7 16.6 12.4 33 16.2 44.2 8.4 24.8-17.8 103.3-17.8 103.3h130.1Z" fill="#fff"/><path d="M1335 813.4c1.7-25.4 21.1-264.5 3.4-266.6-17.7-2-177.3 9.5-183.9 7.8-6.5-1.7-10 206.2-8.3 242 1.6 35.8 2.2 83.8 2.2 83.8l17.3 6.2s58.1-23 74.3-23c16.2 0 53.7-8.9 53.7-8.9l41.3-41.3Z" fill="#fff"/><path fill-rule="evenodd" clip-rule="evenodd" d="M1334.7 1194c2.6-18.7.7-37.5-1.2-56.1-.8-8-1.6-16-2-24l-.2-2.1v-1.4c-1.6-27-3.1-52.9 13.7-77.3 8.7-12.7 10.7-28.2 12.7-43.4a317 317 0 0 1 2-14.3c7.8-43.3 6.5-86.3-13.6-127.2-4.9-10-13.3-15.4-21.7-20.8-2.9-1.9-5.7-3.7-8.4-5.7-5.2-3.9-11-7-16.8-10.1-5-2.7-10.1-5.5-14.8-8.7-10.2-7-20-7-31-2.6-5.5 2.3-11.1 4.4-16.7 6.6-18.5 7-37 14.1-53.3 26.3l-2.5 1.7c-2.6 1.7-5.2 3.4-6.6 6.6 17.5 4 34-.8 50-5.5 29.9-8.6 57-6 81.4 14.4 4 3.4 6 6.8 4.1 11.6a831 831 0 0 0-111.5 15.9c-13.3 3-33.5 25-34.2 38.6-.5 9.6 7 9 12.4 6.6 29-12.6 59.8-14.2 90.6-15.9l13-.7c6-.4 11.8 1 17.6 2.5l4.9 1.2c4 .8 8.5 2.2 8.9 8.5-5 4.3-11.1 3.7-17 3l-5.7-.4a328 328 0 0 0-45.8 3.9c-11.7 1.5-23.4 3-35.2 3.6-8 .4-16.3 3.8-24 7.1-5.8 2.5-11.3 6.7-9.4 14.7 2.7 11 9.5 18.4 21 19.3 12.6 1 25.7 2 38.2.2a318 318 0 0 1 64.8-.5l18 1h2c3.2-.2 6.8-.3 7 4.4.2 6-5.5 6.2-9.3 6.3l-4.8.2a917 917 0 0 1-55.1 1c-18.1-.4-34.2 3-48.9 18.7 8.5 2.7 16 7 23.4 11.3 13.6 8 26.7 15.6 44.2 12.1.6 0 1.2-.2 1.9-.4 5.7-1.2 14.4-3.2 15.1 5.2.6 7.4-6.8 7.7-12.6 7.8a50 50 0 0 0-3.5.2c-16 1.6-32.1 1.5-46.7-7-11.1 18-9.3 32.7 5 47.5 8.3 8.7 9.8 20 7.7 31-5.1 27.4-11.2 54.5-17.4 82.5l-.4 1.8c-4.8.7-9.8 1-14.8.9 1.7-9.1 3.6-18.2 5.5-27.2 4.4-21.6 8.8-43.2 10.7-65.2.5-6.3-1.7-11-5.7-16.1-12.6-16-17.5-33.9-8-53.4 3.3-6.8 3.5-11.7-4.7-15.3-17.3-7.6-18.7-13.5-6.8-31.5-15.5-1.2-29.3-8.7-33.1-21.7-1.8-6.2-4.4-12.2-7-18.2-5.2-11.7-10.3-23.4-9.5-36.8 0-.7.2-1.6.4-2.4.3-1.7.6-3.3 0-3.8-12.3-9.8-11.7-23-11.2-35.7.2-3.6.4-7.2.2-10.6-1.8-43.3-1.4-86.6.2-129.9.7-20 .8-40.2 1-60.3 0-20.2.2-40.3 1-60.4V604c.5-14.8 1-29.6 1-44.3-.2-9.6 4.5-13.6 12.8-13.7 25-.2 49.7-1.5 74.6-2.8 33.4-1.8 66.7-3.5 100.2-2.7 14.7.4 16.3 3.5 17 18.4 1.3 23 1.3 45.7.7 68.6l-.3 9.4c-.5 20.2-1.1 40.4-2 60.6-1.9 40.3-1.7 80.7-1.3 121 .1 7.6 4.5 13 9 18.6 2.6 3.1 5.2 6.3 7 9.9 16.3 32.8 19.7 67.4 15.9 102.8l-1 10c-2.2 21-4.4 42-10 62.8a90 90 0 0 1-10.6 22.6l-4.5 8c-4 7.4-6.1 15.7-6.2 24.2-.7 25.2 1.5 50.3 3.6 75.4l1.2 14.7c.6 6.2.3 12.5 0 19.4l-.1 6c-4.6 1.2-9 1.2-14.5 1.2Zm-15.8-399.6c3.3-3 5.7-6.7 5.8-11 .2-12.4 1.8-24.6 3.4-36.9a333 333 0 0 0 3.4-37.3 4407 4407 0 0 1 2.3-80.5l1.4-43.2v-.8c.7-21.5.8-26.6-28-27.2-20.7-.3-41.4.5-62 1.4-22.2 1-44.3 2-66.5 1.3-1.4 0-3 .3-4.4.7l-3 .6c-9.8 1.2-14 6.7-14 16.4l.2 12.9c.3 14.8.5 29.6-.4 44.4-2.7 42.4-3.8 84.8-4 127.2a158 158 0 0 0 9 51.2c2.2 6.5 7.3 11.2 13.5 6 13.8-11.6 30-17.8 46.2-24 5.5-2 11-4.2 16.3-6.5 19-8 38.3-11.6 56.4 1.7a24 24 0 0 0 24.4 3.6Zm-91.8 56.3c6.2-1.5 12.4-3 18.7-4.2 2.8.3 5.5-.1 8-.5 4.7-.6 9-1.2 13.3 2.2-6.5 5.4-13.9 5.7-21.2 6-3.4.1-6.8.3-10 1l-17.6 3a196 196 0 0 0-43 10.4c-4.3 1.8-8.6 3.1-13.3.3-4.6-2.8-4.7-6.7-3.6-11 1-4 3.6-5.5 7.7-4.1 21 6.8 41 1.8 61-3Z" fill="#000"/><path d="M1382.3 427.6c-10.3 8-14.3 20-22.6 28.4-3.6 3.7-7.7 8.2-13.2 5-5.9-3.6-4.7-10.5-2-15a72.6 72.6 0 0 1 23.6-25.6c6.2-3.8 13.6-4.8 14.2 7.2ZM1262.8 411.4c-1.2-6.4-3.7-13 3.7-15 6.8-1.7 12 3.7 12.9 9.7 1.5 11.9 5.5 23 8.7 34.4 1 3.3 2.3 7.8-3 9.6-4.9 1.6-7.8-2-9.2-5-4.7-10.7-8.6-21.8-13-33.7ZM1448.7 597.7c3.8 6.5 13.7 12 6.3 18.7-6.8 6.1-12.5-3-18-6.8-5-3.6-9.5-8.3-14.5-12-5.6-4-6.9-9-3-14 3.8-4.7 9.2-3.8 13.5 0 5.2 4.3 10 8.9 15.7 14ZM1432 547.3c-6.6-.8-12-3.4-11-10 .8-6 6.5-7.1 12-7.1 11.4 0 23-.4 31 10.5-8.3 14.6-20.5 6.9-32 6.6ZM1300.9 623.8c-11-6.1-15.7-18.8-10.8-28 2.8-5.6 9-8.5 15.1-7.2 6.4 1.5 12.4 5.4 13.7 13.4 1.8 11-4.9 19.7-18 21.8Z" fill="#000"/></g></g></svg>