<svg xmlns="http://www.w3.org/2000/svg" viewBox="0 0 980 980" fill="none" shape-rendering="auto"><metadata xmlns:rdf="http://www.w3.org/1999/02/22-rdf-syntax-ns#" xmlns:xsi="http://www.w3.org/2001/XMLSchema-instance" xmlns:dc="http://purl.org/dc/elements/1.1/" xmlns:dcterms="http://purl.org/dc/terms/"><rdf:RDF><rdf:Description><dc:title>Lorelei</dc:title><dc:creator>Lisa Wischofsky</dc:creator><dc:source xsi:type="dcterms:URI">https://www.figma.com/community/file/1198749693280469639</dc:source><dcterms:license xsi:type="dcterms:URI">https://creativecommons.org/publicdomain/zero/1.0/</dcterms:license><dc:rights>Remix of „Lorelei” (https://www.figma.com/community/file/1198749693280469639) by „Lisa Wischofsky”, licensed under „CC0 1.0” (https://creativecommons.org/publicdomain/zero/1.0/)</dc:rights></rdf:Description></rdf:RDF></metadata><mask id="viewboxMask"><rect width="980" height="980" rx="0" ry="0" x="0" y="0" fill="#fff" /></mask><g mask="url(#viewboxMask)"><g transform="translate(10 -60)"><path fill-rule="evenodd" clip-rule="evenodd" d="M421 119c11 6 21 13 28 23 10 11 17 23 19 38 2 13 0 27-5 39 16-6 34-9 51-10 35-1 70 5 102 17 26 10 49 25 66 48 11 13 17 29 21 46 1 7 2 15 1 22l-1 7c0 3 0 7-2 10-4 13-15 23-27 27-3 1-7 2-10 0-2-1-2-4-3-6l-1-2-9-23-10-34-3-11-10-1a441 441 0 0 1-21-1c-3 0-5-2-8-4l-9-7-3-2-5 12c-3 2-6 2-9 1l-17-4c-27-4-54-5-81-3a633 633 0 0 0-75 8 615 615 0 0 0-19-6l1 9 2 18c-1 4-1 7-3 10l-7 14-14 28c-7 17-12 34-16 52-1 3-2 5-4 6a74 74 0 0 1-12 2c5 9 5 19 5 29-1 12-2 26-9 37 8 10 10 23 11 36 0 18-1 35-8 52-2 4-5 9-9 11h-5l-2-10-1-5c-2-14-9-28-20-38 7 25 18 49 32 72 10 18 21 34 33 51l5 8 4 5 11 16 2 4 4 6c0 5-5 10-9 12-3 0-7-2-10-4l-7-6a67 67 0 0 1-7-4l-6-3c-6-2-12-1-18 1-7 2-13 6-18 10h-2c-6 5-11 11-15 19-1 2-3 2-4 0-4-3-3-9-2-14 3-7 8-14 13-20 7-7 17-11 26-14-35-34-59-79-74-125a393 393 0 0 1-20-138v-5c2-21 5-42 12-63l6-17 4-8c-12-2-24-9-31-19s-10-22-9-34a148 148 0 0 1 55-99c15-21 35-38 59-49 19-9 41-13 62-10a73 73 0 0 1 61 64l1 8a215 215 0 0 0 1 5c1-6 2-13 1-19-2-12-8-22-15-32-10-12-20-22-33-30-5-4-12-6-18-8l-6-2 5-2c14-2 27 2 38 9Zm136 108c31 3 62 13 88 30a111 111 0 0 1 44 51c-8-10-16-20-26-29a196 196 0 0 0-58-35c-15-7-32-13-48-17Zm-318 21c-6 13-12 28-12 42 0 11 6 22 15 28l13 7 3-6a78 78 0 0 1-19-40c-2-10-1-21 0-31Z" fill="#000000"/><path d="M495 231a231 231 0 0 1 219 204c1 10 2 21 0 30-1 4-1 7-4 8-3-10-3-19-4-29a220 220 0 0 0-239-205c-42 4-83 19-117 44l-17 13a221 221 0 0 0-78 164c0 23 7 43 15 64h17c3 1 4 4 2 6l-6 2c-15 1-31 7-42 17-8 9-14 19-16 31-3 15 0 32 8 45 9 15 24 27 40 33 14 5 29 7 43 5 4-1 8-2 11 0v3c-5 5-11 6-18 7-16 3-33-1-47-8a86 86 0 0 1-47-58c-4-18-1-37 9-53 8-12 20-21 34-26-7-14-10-28-12-43-2-18-2-35 0-53 1-13 4-25 8-38a227 227 0 0 1 99-122c41-28 92-43 142-41Z" fill="#000"/><path d="M535 244a220 220 0 0 1 171 200c1 10 1 19 4 29l-2 18v22c-3 4-4 9-4 14-2 8-2 15-2 23v65c0 21-3 42-11 61-4 13-10 24-18 35-10 12-21 22-34 31-11 9-24 17-37 24l-22 14-12 8 9-2c-3 11-3 24-4 36 0 8 1 16 7 22a235 235 0 0 0 81 45c6 7 11 16 13 25 1 9 0 18-4 27-6 10-14 18-23 24-13 10-28 17-43 22a417 417 0 0 1-217 11c-16-3-33-9-48-17-10-5-21-12-28-21-6-6-10-14-11-22-2-10 0-21 5-30 21-13 39-32 49-54 5-11 7-22 8-34 1-16 0-32-1-47-2-20-3-41-8-61 11 12 23 24 37 32 17 11 36 20 55 26 20 7 41 13 63 18l25 3c3 0 6 0 8-2 2-1 1-2 2-3l-17-2c-29-7-58-16-87-27-18-7-36-15-53-27-18-13-33-30-47-47l-11-16-1-1v-3c-3-2-7-1-11 0-14 2-29 0-43-5-16-6-31-18-40-33-8-13-11-30-8-45 2-12 8-22 16-31 11-10 27-16 42-17l6-2c2-2 1-5-2-6h-17c-8-21-15-41-15-64-1-14 2-27 5-41a221 221 0 0 1 73-123l17-13a230 230 0 0 1 185-39Z" fill="#ffffff"/><path d="M708 513c3 3 2 7 3 12v29c0 26 2 54 0 80-3 31-14 63-36 86-25 28-57 51-93 64l2 7v35c1 6 4 10 8 14l26 19 32 20 24 12c2 0 3 1 5 3l-19-5c-19-6-37-14-54-25-9-5-19-12-26-20-6-6-7-14-7-22 1-12 1-25 4-36l-9 2 12-8 22-14c13-7 26-15 37-24 13-9 24-19 34-31a178 178 0 0 0 29-96v-65c0-8 0-15 2-23 0-5 1-10 4-14ZM278 574c5 5 4 14 0 19l-3 7c1 3 5 5 7 6 6 3 12 7 19 9 0 4-3 5-7 5-6-1-13-3-18-6-7-3-13-8-13-16 0-6 5-9 6-14 2-4 0-7-1-11 4-1 7-2 10 1ZM328 667l11 16c14 17 29 34 47 47 17 12 35 20 53 27a714 714 0 0 0 104 29c-1 1 0 2-2 3-2 2-5 2-8 2l-25-3a478 478 0 0 1-118-44c-14-8-26-20-37-32 5 20 6 41 8 61 1 15 2 31 1 47-1 12-3 23-8 34-10 22-28 41-49 54l-14 8c2-4 6-6 9-9 13-11 24-25 34-39 6-10 12-21 14-33 4-19 3-39 3-58l-3-59 2-10c-10-11-19-26-22-41Z" fill="#000"/><path d="M684 485c6 2 11 7 13 13s1 13-2 18c-4 8-12 14-20 18-11 7-24 10-37 8-6 0-12-2-17-6-3-3-6-7-5-12v-3c-1-6 2-13 6-17 8-11 21-18 34-20 9-2 19-2 28 1ZM490 495c7 3 14 7 20 12l5 6c2 1 5 2 6 5 6 7 5 18-2 24-5 5-12 8-19 9-17 4-34 3-50 0-11-3-22-7-32-13-6-4-11-8-13-14-2-5-2-11 1-15 3-6 10-10 16-13 22-8 46-10 68-1Z" fill="#000000"/><path d="M669 490c5 0 11 1 15 4 3 2 5 5 6 9 0 6-4 11-8 15-7 8-18 12-29 15 3-8 3-17 0-25-2-5-4-9-9-12 8-4 16-6 25-6ZM459 499c13 0 27 4 39 9 6 3 11 6 15 11l-1 12c-1 5-6 7-10 8-18 6-36 4-54 0 3-5 5-10 6-16 0-8-3-17-10-22l15-2Z" fill="#fff"/><path d="M533 358c6 2 9 8 10 14 0 8-3 16-7 22-3 3-7 4-10 1-4-3-2-10-2-15l-13 10c-6 4-13 7-20 9-9 4-19 5-30 8l-25 8c-8 3-15 8-22 12l-25 17c-5 3-8 7-11 12-2-4-1-8 1-11a401 401 0 0 1 35-29c16-13 36-21 55-28l28-11c8-4 14-11 21-16 5-2 10-4 15-3ZM626 376l6 7c17 7 33 7 49 16 4 2 7 6 9 10s1 8-2 12l-16-6c-12-6-24-7-36-11-7-3-14-4-19-10-4 8-4 17-8 26-1 1-1 4-4 3l-1-8 2-11c1-8 4-16 7-23 2-6 8-8 13-5Z" fill="#000000"/><path d="M597 505h1l3 15 3 26 8 13 6 12c2 5 2 10 5 14 3 5 5 10 5 16 0 9-6 17-14 20l-19 8c-5 3-9 5-15 5-5 0-11 0-13-5-2-2 0-4 2-5l12-3 16-5 13-5c6-2 9-8 7-14l-5-8-7-17-7-19c-4-8-6-17-5-26 0-7 1-15 4-22Z" fill="#000000"/><path d="M513 669c0 7-5 15-8 21 23-1 45 2 67-2 20-3 37-11 56-14 4 0 10-2 14 2-3 5-8 6-13 8-9 5-19 7-29 11-10 2-19 5-29 6-16 2-32 0-48-1l-21-4-10 23c-1 2-4 3-6 1v-8c3-12 10-24 16-35l7-11c3-1 5 0 4 3Z" fill="#000000"/><path d="M508 220a271 271 0 0 1 97 24c14 7 29 14 42 23 8 5 16 11 22 18l22 25c-9 4-18 3-27 2-17-2-34-4-51-3l-8-1-7-5-12-8c0 4-1 7-3 11-2 2-4 3-7 3-4-1-7-3-11-3a470 470 0 0 0-155 3h-11l-18-6c1 9 4 18 3 26-1 4-1 8-3 11-7 14-15 27-21 42-7 17-13 35-17 53 0 2-1 4-3 5l-12 2c5 9 6 20 5 30-1 12-3 26-9 36 7 9 10 21 10 33 1 19 0 37-7 55-2 4-5 9-10 11-1 1-4 1-4-1-2-4-2-9-3-13-2-15-9-29-20-40-8-7-17-14-26-19-6-2-11-4-16-8l-6-8c-12-32-16-67-12-101a285 285 0 0 1 37-113c10-16 22-30 35-43 10-9 20-17 31-23l14-5 32-11 19-2h43c23 0 44-2 67 0Z" fill="#000000"/></g><g transform="translate(10 -60)"></g></g></svg>